# xmcd
#
# Track frame offsets: 
#        150
#        6783
#        24604
#        44661
#        61630
#        103534
#        127603
#        142563
#        164267
#        189016
#        233656
#        253162
#        274395
#
# Disc length: 3994 seconds
#
# Revision: 2
# Processed by: cddbd v1.5.2PL0 Copyright (c) Steve Scherf et al.
# Submitted via: ExactAudioCopy v0.99pb3
#
DISCID=9c0f980d
DTITLE=Jacob Fred Jazz Odyssey - Walking With Giants
DYEAR=2004
DGENRE=Jazz
TTITLE0=Daily Wheatgrass Shots
TTITLE1=Nibbles
TTITLE2=Skeeball Over the Ocean
TTITLE3=The Arrival
TTITLE4=Walking With Giants
TTITLE5=Lola and Alice
TTITLE6=Muppet Babies Get Lost at the State Fair
TTITLE7=Sean's Song
TTITLE8=Son of Jah
TTITLE9=Calm Before the Storm
TTITLE10=As it Will Be
TTITLE11=Perfect Wife's Flannel PJ's
TTITLE12=Hover
EXTD=YEAR: 2004
EXTT0=
EXTT1=
EXTT2=
EXTT3=
EXTT4=
EXTT5=
EXTT6=
EXTT7=
EXTT8=
EXTT9=
EXTT10=
EXTT11=
EXTT12=
PLAYORDER=
